<?xml version="1.0" encoding="UTF-8"?>
<svg id="Livello_2" data-name="Livello 2" xmlns="http://www.w3.org/2000/svg" viewBox="0 0 207.38 244.58">
  <g id="Livello_1-2" data-name="Livello 1">
    <path d="M171.78,71.36c-2.64.74-5.37-.8-6.11-3.44-.74-2.64.79-5.38,3.44-6.12s5.37.8,6.11,3.45c.74,2.64-.8,5.37-3.44,6.11ZM180.81,122.13c-2.64.74-5.38-.8-6.12-3.45-.74-2.64.81-5.37,3.45-6.11s5.37.8,6.11,3.44c.74,2.64-.8,5.38-3.44,6.12ZM175.17,168.87c-2.64.74-5.38-.8-6.12-3.44-.74-2.64.81-5.37,3.45-6.11s5.37.8,6.11,3.44c.74,2.64-.8,5.37-3.44,6.11ZM125.15,35.02c-2.64.74-5.37-.8-6.11-3.44-.74-2.64.8-5.37,3.44-6.11s5.37.8,6.11,3.44c.74,2.64-.8,5.37-3.44,6.11ZM47.03,56.84c-2.64.74-5.37-.8-6.11-3.44-.74-2.64.8-5.37,3.44-6.11,2.64-.74,5.37.8,6.11,3.44.74,2.64-.8,5.37-3.44,6.11ZM70.94,187.69c2.64-.74,5.38.79,6.12,3.44.74,2.64-.81,5.37-3.45,6.11s-5.37-.8-6.11-3.44c-.74-2.64.8-5.37,3.44-6.11ZM44.56,160.19c-2.64.74-5.37-.8-6.11-3.45s.8-5.37,3.44-6.11c2.64-.74,5.38.8,6.12,3.44s-.8,5.38-3.45,6.12ZM19.87,108.64c-.74-2.64.8-5.38,3.44-6.12,2.64-.74,5.37.8,6.11,3.45.74,2.64-.8,5.37-3.44,6.11s-5.37-.8-6.11-3.44ZM74.32,3.78C22.61,18.22-20.69,75.75,10.51,139.74c31.2,63.99,72.46,66.39,48.16,83.48l5.97,21.36,34.28-9.57s11.91-20.29-4.96-41.63c-16.87-21.34-92.7-112.84-5.04-137.33,87.67-24.49,70.22,93.07,66.85,120.06-3.37,26.99,17.33,38.18,17.33,38.18l34.28-9.57-5.97-21.36c-29.64-2.02,4.41-25.46-2.07-96.35C192.87,16.1,126.02-10.66,74.32,3.78Z"/>
  </g>
</svg>