<?xml version="1.0" encoding="UTF-8"?>
<svg id="Livello_2" data-name="Livello 2" xmlns="http://www.w3.org/2000/svg" viewBox="0 0 226.78 226.78">
  <g id="Livello_1-2" data-name="Livello 1">
    <g>
      <path d="M112.76,31.21v-.07s0,.03,0,.04c0,0,0,.02,0,.03Z"/>
      <path d="M74.87,125.64c-6.04-6.04-15.87-6.04-21.92,0-2.93,2.93-4.54,6.82-4.54,10.96s1.61,8.03,4.54,10.96c3.02,3.02,6.99,4.53,10.96,4.53s7.94-1.51,10.96-4.53c6.04-6.04,6.04-15.88,0-21.92Z"/>
      <path d="M130.87,184.58c-4-1.07-8.17-.52-11.76,1.55-3.59,2.07-6.15,5.41-7.22,9.41-1.07,4-.52,8.17,1.55,11.76,2.07,3.59,5.41,6.15,9.41,7.22,1.34.36,2.69.53,4.04.53,2.69,0,5.34-.71,7.73-2.08,3.59-2.07,6.15-5.41,7.22-9.41,2.21-8.25-2.7-16.77-10.96-18.99Z"/>
      <path d="M214.52,122.85c-1.07-4-3.64-7.34-7.22-9.41-3.59-2.07-7.76-2.62-11.76-1.55-8.25,2.21-13.16,10.73-10.96,18.98,1.07,4,3.64,7.34,7.22,9.41,2.39,1.38,5.04,2.08,7.72,2.08,1.35,0,2.7-.18,4.04-.53,4-1.07,7.34-3.64,9.41-7.22s2.62-7.76,1.55-11.76Z"/>
      <path d="M128.53,145.89c-1.07-4-3.64-7.34-7.22-9.41-3.59-2.07-7.77-2.62-11.76-1.55h0c-4,1.07-7.34,3.64-9.41,7.22-2.07,3.59-2.62,7.76-1.55,11.76,1.07,4,3.64,7.34,7.22,9.41,2.39,1.38,5.04,2.08,7.72,2.08,1.35,0,2.7-.18,4.04-.53,4-1.07,7.34-3.64,9.41-7.22,2.07-3.59,2.62-7.76,1.55-11.76Z"/>
      <path d="M163.33,105.81c-2.07-3.59-5.41-6.15-9.41-7.22-8.26-2.22-16.77,2.71-18.98,10.96-1.07,4-.52,8.18,1.55,11.76,2.07,3.59,5.41,6.15,9.41,7.22,1.34.36,2.69.53,4.04.53,2.68,0,5.34-.7,7.72-2.08,3.59-2.07,6.15-5.41,7.22-9.41,1.07-4,.52-8.18-1.55-11.76Z"/>
      <g>
        <path d="M197.25,54.41c-22.37-22.37-53.11-32.79-84.47-28.72-.13-.16-.26-.32-.41-.47-3.96-4.16-13.34-6.17-24.49-5.24h0c-9.01.75-16.91,2.68-22.98,5.57-4.31-3.52-10.8-3.91-17.52-1.59l-1.42-16.91c-.02-.2-.08-.38-.16-.55,1.04-.84,1.59-2.2,1.29-3.59-.42-1.98-2.37-3.24-4.33-2.82-1.98.42-3.24,2.36-2.82,4.33.29,1.37,1.32,2.38,2.57,2.74,0,.06-.03.11-.02.17l1.52,18c-3.77,1.79-7.51,4.4-10.89,7.78-3.32,3.32-5.98,7.05-7.82,10.89l-17.96-1.51c-.06,0-.11.02-.17.02-.36-1.25-1.37-2.28-2.74-2.57-1.97-.42-3.92.84-4.33,2.82-.42,1.97.84,3.91,2.82,4.33,1.39.29,2.75-.26,3.59-1.29.17.07.35.14.54.16l16.87,1.42c-.36,1.04-.68,2.08-.92,3.12-1.3,5.81-.37,10.86,2.56,14.41-2.88,6.07-4.81,13.97-5.56,22.98-.93,11.15,1.08,20.53,5.24,24.49.15.15.32.25.48.38-4.09,31.37,6.34,62.12,28.72,84.5,19.69,19.69,45.55,29.53,71.42,29.53,14.66,0,29.32-3.17,42.86-9.5.04-.01.08,0,.11-.02,0,0,0,0,0,0h0s.01,0,.02,0c.07-.03.14-.06.21-.1.8-.36,1.59-.74,2.33-1.16.27-.14.54-.29.81-.43.51-.26,1.01-.53,1.51-.8.84-.45,1.68-.92,2.51-1.4.52-.3,1.04-.6,1.56-.91.89-.53,1.77-1.09,2.65-1.65.41-.26.83-.52,1.23-.79,1.23-.81,2.43-1.66,3.63-2.52.42-.31.83-.63,1.25-.94.82-.62,1.63-1.24,2.43-1.88.48-.38.95-.77,1.42-1.17.75-.62,1.48-1.26,2.21-1.9.45-.4.91-.8,1.36-1.21.86-.79,1.7-1.59,2.54-2.41.26-.25.52-.48.78-.74.28-.28.54-.58.82-.86.77-.79,1.53-1.58,2.28-2.4.47-.51.93-1.04,1.38-1.56.56-.64,1.11-1.28,1.66-1.93.47-.56.93-1.12,1.38-1.69.52-.65,1.03-1.31,1.53-1.98.42-.56.86-1.11,1.27-1.68.82-1.13,1.61-2.27,2.38-3.42.39-.58.75-1.17,1.12-1.76.44-.69.88-1.38,1.3-2.09.38-.63.74-1.26,1.1-1.89.4-.7.79-1.4,1.18-2.11.33-.61.66-1.22.97-1.84.12-.23.25-.46.36-.69.45-.81.83-1.57,1.15-2.32.04-.09.12-.26.15-.34,0-.01,0-.03,0-.04,17.47-37.41,10.79-83.4-20.05-114.24ZM70.89,32.21c3.72-3.01,10.14-5.63,19.15-6.38,9.01-.75,18.88,2.35,16.17,6.21-1.53,2.18-7.85,6.78-14.51,7.11-7.34.36-20.04-1.07-21.12-3.22-.6-1.2-.79-2.82.31-3.71ZM44.49,33.29c1.43-1.42,3.74-1.42,5.17,0,1.42,1.44,1.42,3.75,0,5.17-1.44,1.43-3.75,1.43-5.17,0-1.43-1.43-1.43-3.74,0-5.17ZM33.29,44.49c1.44-1.43,3.75-1.43,5.17,0,1.43,1.43,1.43,3.74,0,5.17-1.43,1.42-3.74,1.42-5.17,0-1.42-1.44-1.42-3.75,0-5.17ZM25.83,90.04c.75-9.01,3.38-15.43,6.38-19.15.89-1.1,2.51-.91,3.71-.32,2.15,1.08,3.58,13.79,3.22,21.13-.32,6.65-4.92,12.98-7.11,14.51-3.86,2.71-6.96-7.16-6.21-16.17ZM181.93,195.96c-.95,6.79-5.39,13.04-11.9,16.78-36.61,18.58-82.59,12.61-113.16-17.95-21.32-21.32-31.42-50.51-27.89-80.39,0,0,0,0,0,0,.08.02.17.02.26.03.34.06.69.1,1.04.1.05,0,.09.01.14.01.31,0,.63-.02.95-.06.05,0,.1-.01.14-.02,19.27-3.38,37.98-13.17,52.89-27.6l3.72,3.73c-4.85,6.08-4.47,14.99,1.16,20.62,3.02,3.02,6.99,4.53,10.96,4.53,3.42,0,6.85-1.13,9.66-3.38l64.86,64.87c5.61,5.61,8.08,12.08,7.15,18.72ZM212.77,169.97c-3.74,6.54-10,11-16.81,11.95-6.64.93-13.12-1.54-18.73-7.15l-64.86-64.87c4.85-6.08,4.46-14.99-1.16-20.62-5.62-5.62-14.54-6-20.62-1.15l-3.72-3.72c6.09-6.29,11.36-13.25,15.66-20.66.17-.29.32-.59.49-.88.47-.83.95-1.66,1.39-2.51.34-.64.66-1.3.99-1.95.25-.5.52-1,.76-1.5.43-.89.84-1.79,1.24-2.69.12-.27.25-.54.37-.81.46-1.04.89-2.09,1.31-3.14.05-.14.12-.27.17-.41.44-1.12.85-2.24,1.25-3.37.03-.07.06-.15.08-.22.41-1.17.79-2.34,1.15-3.51.01-.04.03-.08.04-.11.36-1.19.7-2.38,1.02-3.58,0-.03.02-.05.02-.08.3-1.16.58-2.32.84-3.49.01-.07.03-.13.05-.2.24-1.11.46-2.22.66-3.34.02-.12.05-.24.07-.35,0-.03,0-.05.01-.08,0-.04.01-.07.02-.11.02-.1.03-.2.03-.3,0-.03,0-.06,0-.08.03-.3.03-.6.02-.9,0-.06,0-.13,0-.19-.02-.33-.06-.67-.13-.99,29.88-3.53,59.07,6.57,80.39,27.89,30.56,30.56,36.54,76.5,17.98,113.11Z"/>
        <path d="M125.64,52.95c-6.04,6.05-6.04,15.88,0,21.92,3.02,3.02,6.99,4.53,10.96,4.53s7.94-1.51,10.97-4.53c6.04-6.04,6.04-15.87,0-21.92-6.05-6.04-15.88-6.04-21.92,0Z"/>
      </g>
    </g>
  </g>
</svg>