<?xml version="1.0" encoding="UTF-8"?>
<svg id="Livello_2" data-name="Livello 2" xmlns="http://www.w3.org/2000/svg" viewBox="0 0 193.23 242.86">
  <defs>
    <style>
      .cls-1 {
        fill: none;
      }

      .cls-1, .cls-2 {
        stroke: #000;
        stroke-linecap: round;
        stroke-linejoin: round;
        stroke-width: 3.47px;
      }
    </style>
  </defs>
  <g id="Livello_1-2" data-name="Livello 1">
    <g>
      <path class="cls-2" d="M101.79,10.1c-1.43,2.24-2.19,4.65-5.34,4.65s-3.92-2.41-5.34-4.65c-13.43-21.15-50.53.99-35.84,30.74,15.21,30.79,41.16,57.86,41.18,54.62.02,3.24,25.97-23.84,41.18-54.62,14.7-29.76-22.4-51.89-35.84-30.74Z"/>
      <path class="cls-2" d="M10.1,91.83c2.24,1.43,4.65,2.19,4.65,5.34s-2.41,3.92-4.65,5.34c-21.15,13.43.99,50.53,30.74,35.84,30.79-15.21,57.86-41.16,54.62-41.18,3.24-.02-23.84-25.97-54.62-41.18-29.76-14.7-51.89,22.4-30.74,35.84Z"/>
      <path class="cls-2" d="M91.14,184.88c1.43-2.24,2.19-4.65,5.34-4.65s3.92,2.41,5.34,4.65c13.43,21.15,50.53-.99,35.84-30.74-15.21-30.79-41.16-57.86-41.18-54.62-.02-3.24-25.97,23.84-41.18,54.62-14.7,29.76,22.4,51.89,35.84,30.74Z"/>
      <path class="cls-2" d="M183.12,102.51c-2.24-1.43-4.65-2.19-4.65-5.34s2.41-3.92,4.65-5.34c21.15-13.43-.99-50.53-30.74-35.84-30.79,15.21-57.86,41.16-54.62,41.18-3.24.02,23.84,25.97,54.62,41.18,29.76,14.7,51.89-22.4,30.74-35.84Z"/>
      <path class="cls-1" d="M96.48,97.17c49.96,47.98,70,69.15,54.76,143.95"/>
    </g>
  </g>
</svg>